<svg width="32" height="32" viewBox="0 0 32 32" fill="none" xmlns="http://www.w3.org/2000/svg">
<path d="M32 14.9988C32 23.2794 24.8375 29.9976 16 29.9976C13.6812 29.9976 11.4812 29.5351 9.49375 28.7039L2.09375 31.8787C1.50625 32.1286 0.83125 31.9849 0.4 31.5162C-0.0312499 31.0475 -0.125 30.36 0.175 29.7976L3.225 24.0356C1.2 21.517 0 18.3923 0 14.9988C0 6.71821 7.1625 0 16 0C24.8375 0 32 6.71821 32 14.9988Z" fill="#4461EF"/>
<path d="M24 16.875C24 19.1541 22.0821 21 19.7143 21H19.4286C18.7964 21 18.2857 20.5084 18.2857 19.9C18.2857 19.2916 18.7964 18.8 19.4286 18.8H19.7143C20.8179 18.8 21.7143 17.9372 21.7143 16.875V16.6H19.4286C18.1679 16.6 17.1429 15.6134 17.1429 14.4V12.2C17.1429 10.9866 18.1679 10 19.4286 10H21.7143C22.975 10 24 10.9866 24 12.2V16.875ZM14.8571 16.875C14.8571 19.1541 12.9393 21 10.5714 21H10.2857C9.65357 21 9.14286 20.5084 9.14286 19.9C9.14286 19.2916 9.65357 18.8 10.2857 18.8H10.5714C11.675 18.8 12.5714 17.9372 12.5714 16.875V16.6H10.2857C9.025 16.6 8 15.6134 8 14.4V12.2C8 10.9866 9.025 10 10.2857 10H12.5714C13.8321 10 14.8571 10.9866 14.8571 12.2V16.875Z" fill="white"/>
</svg>
