<svg width="33" height="29" viewBox="0 0 33 29" fill="none" xmlns="http://www.w3.org/2000/svg">
<path d="M8.75 10.0412L3.03 13.1812L3.17 22.7012H7.4C7.51 22.7012 7.62 22.7412 7.7 22.8212C10.45 25.5212 13.87 25.6612 14.24 25.6712C14.26 25.6712 14.28 25.6712 14.3 25.6712C18.42 25.9212 18.4 23.0712 18.39 22.7712C18.37 22.5912 18.46 22.4112 18.63 22.3312C20.48 21.4512 19.82 19.4812 19.73 19.2512C19.73 19.2412 19.72 19.2212 19.71 19.2112C19.64 18.9812 19.76 18.7412 19.99 18.6612C21.11 18.2912 21.07 17.0512 21.06 16.9012C20.8 15.3112 21.51 14.8012 21.76 14.6812C21.82 14.6412 21.9 14.6212 21.98 14.6212H26.94C29.82 14.1912 28.81 11.7612 27.84 11.7512H15.04C15.04 11.7512 14.98 11.7512 14.96 11.7512C12.73 11.3412 13.26 9.39115 13.36 9.07115C13.36 9.05115 13.37 9.03115 13.38 9.01115C13.48 8.76115 13.56 8.56115 13.65 8.33115C14.22 6.92115 15.09 4.80115 14.77 3.70115C14.6 3.13115 12.93 2.69115 12.39 3.63115L8.93 9.84115C8.89 9.92115 8.83 9.99115 8.75 10.0312V10.0412ZM1.49 10.5712L6.64 7.74115L9.83 1.94115C10.31 1.07115 11.15 0.481153 12.11 0.201153C12.69 0.0311535 13.33 -0.0388465 13.94 0.0211535C14.59 0.0711535 15.24 0.261153 15.81 0.581153C16.67 1.05115 17.36 1.80115 17.67 2.86115C18.01 4.01115 17.85 5.32115 17.49 6.60115C17.28 7.37115 17.01 8.09115 16.76 8.73115H27.77C29.47 8.73115 30.78 9.60115 31.5 10.8212C31.84 11.4012 32.05 12.0712 32.08 12.7612C32.12 13.4512 31.99 14.1512 31.67 14.8112C31.03 16.1512 29.64 17.3112 27.35 17.6412C27.29 17.6412 27.23 17.6612 27.16 17.6612C27.16 17.6612 27.14 17.6612 27.13 17.6612C27.08 17.6612 27.03 17.6612 26.98 17.6612H24.06C24.03 17.9312 23.97 18.2412 23.87 18.5612C23.7 19.1112 23.42 19.7012 22.96 20.2312C22.96 20.6412 22.94 21.0812 22.84 21.5412C22.64 22.4712 22.18 23.4312 21.26 24.2212C21.09 24.9512 20.75 25.8212 20.06 26.6212C19.01 27.8612 17.22 28.8712 14.19 28.7012C14.17 28.7012 14.14 28.7012 14.12 28.7012H14.09C14.09 28.7012 14.03 28.7012 14 28.7012C13.52 28.6812 12.4 28.5812 11.06 28.1812C9.67 27.7712 8 27.0412 6.41 25.7412H2.74C2.02 25.7412 1.37 25.4512 0.9 24.9812C0.81 24.8912 0.74 24.8012 0.67 24.7012C0.34 24.2612 0.14 23.7212 0.14 23.1412C0.14 23.0512 0.14 23.2112 0.14 23.0512L0 13.0412C0 13.0412 0 12.9812 0 12.9512C0 12.4312 0.14 11.9512 0.39 11.5512C0.57 11.2612 0.81 11.0112 1.09 10.8112C1.22 10.7112 1.35 10.6312 1.49 10.5612V10.5712Z" fill="white"/>
</svg>
