<svg width="112" height="15" viewBox="0 0 112 15" fill="none" xmlns="http://www.w3.org/2000/svg">
<path d="M8.62501 0.373856C8.50577 0.145547 8.26439 0 8.00266 0C7.74092 0 7.49954 0.145547 7.3803 0.373856L5.23988 4.48913L0.589686 5.21401C0.330858 5.25396 0.115652 5.43376 0.0342227 5.67919C-0.0472066 5.92462 0.0196818 6.19289 0.202898 6.37553L3.52986 9.64321L2.797 14.2065C2.75629 14.4605 2.86389 14.7174 3.07619 14.8686C3.28848 15.0199 3.56767 15.0427 3.80323 14.9257L8.00266 12.831L12.1992 14.9257C12.4318 15.0427 12.7139 15.0199 12.9262 14.8686C13.1385 14.7174 13.2461 14.4634 13.2054 14.2065L12.4696 9.64321L15.7966 6.37553C15.9827 6.19289 16.0467 5.92462 15.9653 5.67919C15.8838 5.43376 15.6715 5.25396 15.4098 5.21401L10.7625 4.48913L8.62501 0.373856Z" fill="#FF9A23"/>
<path d="M32.625 0.373856C32.5058 0.145547 32.2644 0 32.0027 0C31.7409 0 31.4995 0.145547 31.3803 0.373856L29.2399 4.48913L24.5897 5.21401C24.3309 5.25396 24.1157 5.43376 24.0342 5.67919C23.9528 5.92462 24.0197 6.19289 24.2029 6.37553L27.5299 9.64321L26.797 14.2065C26.7563 14.4605 26.8639 14.7174 27.0762 14.8686C27.2885 15.0199 27.5677 15.0427 27.8032 14.9257L32.0027 12.831L36.1992 14.9257C36.4318 15.0427 36.7139 15.0199 36.9262 14.8686C37.1385 14.7174 37.2461 14.4634 37.2054 14.2065L36.4696 9.64321L39.7966 6.37553C39.9827 6.19289 40.0467 5.92462 39.9653 5.67919C39.8838 5.43376 39.6715 5.25396 39.4098 5.21401L34.7625 4.48913L32.625 0.373856Z" fill="#FF9A23"/>
<path d="M56.625 0.373856C56.5058 0.145547 56.2644 0 56.0027 0C55.7409 0 55.4995 0.145547 55.3803 0.373856L53.2399 4.48913L48.5897 5.21401C48.3309 5.25396 48.1157 5.43376 48.0342 5.67919C47.9528 5.92462 48.0197 6.19289 48.2029 6.37553L51.5299 9.64321L50.797 14.2065C50.7563 14.4605 50.8639 14.7174 51.0762 14.8686C51.2885 15.0199 51.5677 15.0427 51.8032 14.9257L56.0027 12.831L60.1992 14.9257C60.4318 15.0427 60.7139 15.0199 60.9262 14.8686C61.1385 14.7174 61.2461 14.4634 61.2054 14.2065L60.4696 9.64321L63.7966 6.37553C63.9827 6.19289 64.0467 5.92462 63.9653 5.67919C63.8838 5.43376 63.6715 5.25396 63.4098 5.21401L58.7625 4.48913L56.625 0.373856Z" fill="#FF9A23"/>
<path d="M80.625 0.373856C80.5058 0.145547 80.2644 0 80.0027 0C79.7409 0 79.4995 0.145547 79.3803 0.373856L77.2399 4.48913L72.5897 5.21401C72.3309 5.25396 72.1157 5.43376 72.0342 5.67919C71.9528 5.92462 72.0197 6.19289 72.2029 6.37553L75.5299 9.64321L74.797 14.2065C74.7563 14.4605 74.8639 14.7174 75.0762 14.8686C75.2885 15.0199 75.5677 15.0427 75.8032 14.9257L80.0027 12.831L84.1992 14.9257C84.4318 15.0427 84.7139 15.0199 84.9262 14.8686C85.1385 14.7174 85.2461 14.4634 85.2054 14.2065L84.4696 9.64321L87.7966 6.37553C87.9827 6.19289 88.0467 5.92462 87.9653 5.67919C87.8838 5.43376 87.6715 5.25396 87.4098 5.21401L82.7625 4.48913L80.625 0.373856Z" fill="#FF9A23"/>
<path d="M104.625 0.373856C104.506 0.145547 104.264 0 104.003 0C103.741 0 103.5 0.145547 103.38 0.373856L101.24 4.48913L96.5897 5.21401C96.3309 5.25396 96.1157 5.43376 96.0342 5.67919C95.9528 5.92462 96.0197 6.19289 96.2029 6.37553L99.5299 9.64321L98.797 14.2065C98.7563 14.4605 98.8639 14.7174 99.0762 14.8686C99.2885 15.0199 99.5677 15.0427 99.8032 14.9257L104.003 12.831L108.199 14.9257C108.432 15.0427 108.714 15.0199 108.926 14.8686C109.139 14.7174 109.246 14.4634 109.205 14.2065L108.47 9.64321L111.797 6.37553C111.983 6.19289 112.047 5.92462 111.965 5.67919C111.884 5.43376 111.672 5.25396 111.41 5.21401L106.763 4.48913L104.625 0.373856Z" fill="#FF9A23"/>
</svg>
